<svg width="1187" height="613" viewBox="0 0 1187 613" fill="none" xmlns="http://www.w3.org/2000/svg">
<path d="M624 77L585 99.5167L585 54.4833L624 77Z" fill="#FAD502"/>
<path d="M392 258L414.517 297L369.483 297L392 258Z" fill="#FAD502"/>
<circle cx="599.5" cy="283.5" r="206.5" stroke="#FAD502" stroke-width="10"/>
<circle cx="454.5" cy="145.5" r="34" fill="#312E2E" stroke="#FAD502" stroke-width="5"/>
<circle cx="454.5" cy="428.5" r="34" fill="#312E2E" stroke="#FAD502" stroke-width="5"/>
<circle cx="743.5" cy="428.5" r="34" fill="#312E2E" stroke="#FAD502" stroke-width="5"/>
<circle cx="743.5" cy="145.5" r="34" fill="#312E2E" stroke="#FAD502" stroke-width="5"/>
<path d="M806 294L783.483 255L828.517 255L806 294Z" fill="#FAD502"/>
<path d="M574 488L613 465.483L613 510.517L574 488Z" fill="#FAD502"/>
<path d="M746.014 131.909V161H739.864V137.747H739.693L733.031 141.923V136.469L740.233 131.909H746.014ZM754.96 161.369C754.022 161.369 753.217 161.038 752.545 160.375C751.882 159.703 751.55 158.898 751.55 157.96C751.55 157.032 751.882 156.237 752.545 155.574C753.217 154.911 754.022 154.58 754.96 154.58C755.869 154.58 756.664 154.911 757.346 155.574C758.028 156.237 758.369 157.032 758.369 157.96C758.369 158.585 758.208 159.158 757.886 159.679C757.573 160.19 757.161 160.602 756.65 160.915C756.138 161.218 755.575 161.369 754.96 161.369Z" fill="white"/>
<path d="M733.358 441V436.568L743.713 426.98C744.594 426.128 745.332 425.361 745.929 424.679C746.535 423.997 746.994 423.33 747.307 422.676C747.619 422.013 747.776 421.298 747.776 420.531C747.776 419.679 747.581 418.945 747.193 418.33C746.805 417.705 746.275 417.226 745.602 416.895C744.93 416.554 744.168 416.384 743.315 416.384C742.425 416.384 741.649 416.563 740.986 416.923C740.323 417.283 739.812 417.799 739.452 418.472C739.092 419.144 738.912 419.944 738.912 420.872H733.074C733.074 418.969 733.505 417.316 734.366 415.915C735.228 414.513 736.436 413.429 737.989 412.662C739.542 411.895 741.331 411.511 743.358 411.511C745.441 411.511 747.255 411.881 748.798 412.619C750.351 413.348 751.559 414.362 752.42 415.659C753.282 416.956 753.713 418.443 753.713 420.119C753.713 421.218 753.495 422.302 753.06 423.372C752.634 424.442 751.871 425.631 750.773 426.938C749.674 428.235 748.126 429.793 746.128 431.611L741.881 435.773V435.972H754.097V441H733.358ZM762.147 441.369C761.21 441.369 760.405 441.038 759.732 440.375C759.069 439.703 758.738 438.898 758.738 437.96C758.738 437.032 759.069 436.237 759.732 435.574C760.405 434.911 761.21 434.58 762.147 434.58C763.056 434.58 763.852 434.911 764.533 435.574C765.215 436.237 765.556 437.032 765.556 437.96C765.556 438.585 765.395 439.158 765.073 439.679C764.761 440.19 764.349 440.602 763.837 440.915C763.326 441.218 762.763 441.369 762.147 441.369Z" fill="white"/>
<path d="M451.111 441.398C448.99 441.398 447.1 441.033 445.443 440.304C443.795 439.565 442.493 438.552 441.537 437.264C440.59 435.967 440.102 434.471 440.074 432.776H446.267C446.305 433.486 446.537 434.111 446.963 434.651C447.399 435.181 447.976 435.593 448.696 435.886C449.416 436.18 450.225 436.327 451.125 436.327C452.062 436.327 452.891 436.161 453.611 435.83C454.33 435.498 454.894 435.039 455.301 434.452C455.708 433.865 455.912 433.187 455.912 432.42C455.912 431.644 455.694 430.957 455.259 430.361C454.832 429.755 454.217 429.281 453.412 428.94C452.616 428.599 451.67 428.429 450.571 428.429H447.858V423.912H450.571C451.499 423.912 452.318 423.751 453.028 423.429C453.748 423.107 454.307 422.662 454.705 422.094C455.102 421.516 455.301 420.844 455.301 420.077C455.301 419.348 455.126 418.708 454.776 418.159C454.435 417.6 453.952 417.165 453.327 416.852C452.711 416.54 451.991 416.384 451.168 416.384C450.334 416.384 449.572 416.535 448.881 416.838C448.189 417.132 447.635 417.553 447.219 418.102C446.802 418.652 446.58 419.295 446.551 420.034H440.656C440.685 418.358 441.163 416.881 442.091 415.602C443.019 414.324 444.269 413.325 445.841 412.605C447.422 411.876 449.207 411.511 451.196 411.511C453.204 411.511 454.96 411.876 456.466 412.605C457.972 413.334 459.141 414.319 459.974 415.56C460.817 416.791 461.234 418.173 461.224 419.707C461.234 421.336 460.727 422.695 459.705 423.784C458.691 424.873 457.37 425.564 455.741 425.858V426.085C457.882 426.36 459.51 427.103 460.628 428.315C461.755 429.518 462.313 431.024 462.304 432.832C462.313 434.49 461.835 435.962 460.869 437.25C459.913 438.538 458.592 439.551 456.906 440.29C455.221 441.028 453.289 441.398 451.111 441.398ZM469.499 441.369C468.561 441.369 467.756 441.038 467.084 440.375C466.421 439.703 466.089 438.898 466.089 437.96C466.089 437.032 466.421 436.237 467.084 435.574C467.756 434.911 468.561 434.58 469.499 434.58C470.408 434.58 471.203 434.911 471.885 435.574C472.567 436.237 472.908 437.032 472.908 437.96C472.908 438.585 472.747 439.158 472.425 439.679C472.112 440.19 471.7 440.602 471.189 440.915C470.678 441.218 470.114 441.369 469.499 441.369Z" fill="white"/>
<path d="M440.918 153.886V149.043L453.062 129.909H457.239V136.614H454.767L447.111 148.73V148.957H464.369V153.886H440.918ZM454.881 159V152.409L454.994 150.264V129.909H460.761V159H454.881ZM471.514 159.369C470.577 159.369 469.772 159.038 469.099 158.375C468.437 157.703 468.105 156.898 468.105 155.96C468.105 155.032 468.437 154.237 469.099 153.574C469.772 152.911 470.577 152.58 471.514 152.58C472.423 152.58 473.219 152.911 473.901 153.574C474.582 154.237 474.923 155.032 474.923 155.96C474.923 156.585 474.762 157.158 474.44 157.679C474.128 158.19 473.716 158.602 473.205 158.915C472.693 159.218 472.13 159.369 471.514 159.369Z" fill="white"/>
</svg>
