<svg width="466" height="463" viewBox="0 0 466 463" fill="none" xmlns="http://www.w3.org/2000/svg">
<path d="M258 26L219 48.5167L219 3.48334L258 26Z" fill="#FAD502"/>
<path d="M26 207L48.5167 246L3.48335 246L26 207Z" fill="#FAD502"/>
<circle cx="233.5" cy="232.5" r="206.5" stroke="#FAD502" stroke-width="10"/>
<circle cx="88.5" cy="94.5" r="34" fill="#312E2E" stroke="#FAD502" stroke-width="5"/>
<circle cx="88.5" cy="377.5" r="34" fill="#312E2E" stroke="#FAD502" stroke-width="5"/>
<circle cx="377.5" cy="377.5" r="34" fill="#312E2E" stroke="#FAD502" stroke-width="5"/>
<circle cx="377.5" cy="94.5" r="34" fill="#312E2E" stroke="#FAD502" stroke-width="5"/>
<path d="M440 243L417.483 204L462.517 204L440 243Z" fill="#FAD502"/>
<path d="M208 437L247 414.483L247 459.517L208 437Z" fill="#FAD502"/>
<path d="M380.014 80.9091V110H373.864V86.7472H373.693L367.031 90.9233V85.4688L374.233 80.9091H380.014ZM388.96 110.369C388.022 110.369 387.217 110.038 386.545 109.375C385.882 108.703 385.55 107.898 385.55 106.96C385.55 106.032 385.882 105.237 386.545 104.574C387.217 103.911 388.022 103.58 388.96 103.58C389.869 103.58 390.664 103.911 391.346 104.574C392.028 105.237 392.369 106.032 392.369 106.96C392.369 107.585 392.208 108.158 391.886 108.679C391.573 109.19 391.161 109.602 390.65 109.915C390.138 110.218 389.575 110.369 388.96 110.369Z" fill="white"/>
<path d="M367.358 390V385.568L377.713 375.98C378.594 375.128 379.332 374.361 379.929 373.679C380.535 372.997 380.994 372.33 381.307 371.676C381.619 371.013 381.776 370.298 381.776 369.531C381.776 368.679 381.581 367.945 381.193 367.33C380.805 366.705 380.275 366.226 379.602 365.895C378.93 365.554 378.168 365.384 377.315 365.384C376.425 365.384 375.649 365.563 374.986 365.923C374.323 366.283 373.812 366.799 373.452 367.472C373.092 368.144 372.912 368.944 372.912 369.872H367.074C367.074 367.969 367.505 366.316 368.366 364.915C369.228 363.513 370.436 362.429 371.989 361.662C373.542 360.895 375.331 360.511 377.358 360.511C379.441 360.511 381.255 360.881 382.798 361.619C384.351 362.348 385.559 363.362 386.42 364.659C387.282 365.956 387.713 367.443 387.713 369.119C387.713 370.218 387.495 371.302 387.06 372.372C386.634 373.442 385.871 374.631 384.773 375.938C383.674 377.235 382.126 378.793 380.128 380.611L375.881 384.773V384.972H388.097V390H367.358ZM396.147 390.369C395.21 390.369 394.405 390.038 393.732 389.375C393.069 388.703 392.738 387.898 392.738 386.96C392.738 386.032 393.069 385.237 393.732 384.574C394.405 383.911 395.21 383.58 396.147 383.58C397.056 383.58 397.852 383.911 398.533 384.574C399.215 385.237 399.556 386.032 399.556 386.96C399.556 387.585 399.395 388.158 399.073 388.679C398.761 389.19 398.349 389.602 397.837 389.915C397.326 390.218 396.763 390.369 396.147 390.369Z" fill="white"/>
<path d="M85.1108 390.398C82.9896 390.398 81.1004 390.033 79.4432 389.304C77.7955 388.565 76.4934 387.552 75.5369 386.264C74.59 384.967 74.1023 383.471 74.0739 381.776H80.267C80.3049 382.486 80.5369 383.111 80.9631 383.651C81.3987 384.181 81.9763 384.593 82.696 384.886C83.4157 385.18 84.2254 385.327 85.125 385.327C86.0625 385.327 86.8911 385.161 87.6108 384.83C88.3305 384.498 88.8939 384.039 89.3011 383.452C89.7083 382.865 89.9119 382.187 89.9119 381.42C89.9119 380.644 89.6941 379.957 89.2585 379.361C88.8324 378.755 88.2169 378.281 87.4119 377.94C86.6165 377.599 85.6695 377.429 84.571 377.429H81.858V372.912H84.571C85.4991 372.912 86.3182 372.751 87.0284 372.429C87.7481 372.107 88.3068 371.662 88.7045 371.094C89.1023 370.516 89.3011 369.844 89.3011 369.077C89.3011 368.348 89.1259 367.708 88.7756 367.159C88.4347 366.6 87.9517 366.165 87.3267 365.852C86.7112 365.54 85.9915 365.384 85.1676 365.384C84.3343 365.384 83.572 365.535 82.8807 365.838C82.1894 366.132 81.6354 366.553 81.2188 367.102C80.8021 367.652 80.5795 368.295 80.5511 369.034H74.6562C74.6847 367.358 75.1629 365.881 76.0909 364.602C77.0189 363.324 78.2689 362.325 79.8409 361.605C81.4223 360.876 83.2074 360.511 85.196 360.511C87.2036 360.511 88.9602 360.876 90.4659 361.605C91.9716 362.334 93.1411 363.319 93.9744 364.56C94.8172 365.791 95.2339 367.173 95.2244 368.707C95.2339 370.336 94.7273 371.695 93.7045 372.784C92.6913 373.873 91.3703 374.564 89.7415 374.858V375.085C91.8816 375.36 93.5104 376.103 94.6278 377.315C95.7547 378.518 96.3134 380.024 96.304 381.832C96.3134 383.49 95.8352 384.962 94.8693 386.25C93.9129 387.538 92.5919 388.551 90.9062 389.29C89.2206 390.028 87.2888 390.398 85.1108 390.398ZM103.499 390.369C102.561 390.369 101.756 390.038 101.084 389.375C100.421 388.703 100.089 387.898 100.089 386.96C100.089 386.032 100.421 385.237 101.084 384.574C101.756 383.911 102.561 383.58 103.499 383.58C104.408 383.58 105.203 383.911 105.885 384.574C106.567 385.237 106.908 386.032 106.908 386.96C106.908 387.585 106.747 388.158 106.425 388.679C106.112 389.19 105.7 389.602 105.189 389.915C104.678 390.218 104.114 390.369 103.499 390.369Z" fill="white"/>
<path d="M74.9176 102.886V98.0426L87.0625 78.9091H91.2386V85.6136H88.767L81.1108 97.7301V97.9574H98.3693V102.886H74.9176ZM88.8807 108V101.409L88.9943 99.2642V78.9091H94.7614V108H88.8807ZM105.514 108.369C104.577 108.369 103.772 108.038 103.099 107.375C102.437 106.703 102.105 105.898 102.105 104.96C102.105 104.032 102.437 103.237 103.099 102.574C103.772 101.911 104.577 101.58 105.514 101.58C106.423 101.58 107.219 101.911 107.901 102.574C108.582 103.237 108.923 104.032 108.923 104.96C108.923 105.585 108.762 106.158 108.44 106.679C108.128 107.19 107.716 107.602 107.205 107.915C106.693 108.218 106.13 108.369 105.514 108.369Z" fill="white"/>
</svg>
