<?xml version="1.0" encoding="UTF-8"?>
<svg id="Layer_1" data-name="Layer 1" xmlns="http://www.w3.org/2000/svg" viewBox="0 0 2086.06 629.01">
  <defs>
    <style>
      .cls-1 {
        fill: #fad502;
        stroke-width: 0px;
      }
    </style>
  </defs>
  <path class="cls-1" d="M525.38,489.01H202.89c-9.25,0-16.75-7.5-16.75-16.75v-60.82l-21.58,11.38c-5.19,2.74-11.43,2.56-16.46-.47-5.03-3.03-8.1-8.47-8.1-14.34v-153.96c0-6.21,3.44-11.92,8.94-14.82l184.31-97.19c4.89-2.57,10.73-2.57,15.62,0l184.31,97.19c5.5,2.9,8.94,8.6,8.94,14.82v85.85c0,5.87-3.07,11.31-8.1,14.34-5.03,3.03-11.27,3.21-16.46.47l-113.6-59.9.06,86.29,129.16,68.1c5.5,2.9,8.94,8.6,8.94,14.82v8.24c0,9.25-7.5,16.75-16.75,16.75ZM219.63,455.51h253.69l-93.85-49.49c-5.49-2.9-8.93-8.59-8.94-14.8l-.08-124.17c0-5.87,3.07-11.32,8.09-14.35,5.03-3.03,11.28-3.21,16.47-.48l113.62,59.91v-47.98l-167.57-88.36-167.56,88.36v116.09l21.58-11.38c5.19-2.73,11.44-2.55,16.46.47,5.03,3.03,8.1,8.47,8.1,14.34v71.84Z"/>
  <g>
    <path class="cls-1" d="M1217.63,472.74l2.03-11.49h22.49l-1.32,7.66c-.36,1.68,0,2.15,1.68,2.15h14.48c1.67,0,2.27-.48,2.63-2.15l1.2-7.3c.24-1.68-.24-2.04-1.91-2.51l-20.7-6.1c-11.13-3.23-15.91-5.38-13.88-16.87l2.51-14.59c2.04-11.01,8.02-16.27,18.78-16.27h30.27c10.77,0,15.07,5.26,13.04,16.27l-1.79,10.65h-22.49l1.2-6.82c.24-1.68-.12-2.15-1.79-2.15h-12.92c-1.56,0-2.15.48-2.39,2.15l-1.2,6.46c-.36,1.68,0,2.04,1.91,2.63l20.82,5.98c11.13,3.11,15.91,5.38,13.88,16.87l-2.75,15.43c-1.91,11-8.02,16.27-18.78,16.27h-31.94c-10.77,0-14.95-5.26-13.04-16.27Z"/>
    <path class="cls-1" d="M1304.96,405.26h57.9l-3.23,18.66h-35.41l-2.27,13.04h27.99l-3.23,18.42h-28l-2.63,14.96h35.41l-3.35,18.66h-57.9l14.72-83.74Z"/>
    <path class="cls-1" d="M1435.83,421.54l-3.83,21.77c-1.56,9.21-6.1,14.36-13.76,15.79l9.09,29.91h-21.77l-9.09-27.99h-9.45l-4.91,27.99h-22.49l14.72-83.74h48.45c10.77,0,15.08,5.26,13.04,16.27ZM1407.48,443.31c1.56,0,2.15-.48,2.51-2.15l2.63-15.55c.36-1.68,0-2.15-1.56-2.15h-17.35l-3.59,19.86h17.35Z"/>
    <path class="cls-1" d="M1442.89,405.26h23.57l2.99,60.54,24.4-60.54h23.93l-39.36,83.74h-25.6l-9.93-83.74Z"/>
    <path class="cls-1" d="M1525.08,405.26h22.49l-14.72,83.74h-22.49l14.72-83.74Z"/>
    <path class="cls-1" d="M1548.76,472.74l8.97-51.2c2.03-11.01,8.25-16.27,19.02-16.27h31.7c10.77,0,14.83,5.26,12.8,16.27l-2.75,15.67h-22.49l2.03-11.13c.24-1.67-.12-2.15-1.79-2.15h-14.36c-1.56,0-2.15.48-2.39,2.15l-7.42,42.11c-.36,1.68.12,2.15,1.68,2.15h14.36c1.67,0,2.15-.48,2.51-2.15l1.91-11.13h22.49l-2.75,15.67c-1.92,11-8.14,16.27-18.78,16.27h-31.7c-10.77,0-14.96-5.26-13.04-16.27Z"/>
    <path class="cls-1" d="M1635.01,405.26h57.9l-3.23,18.66h-35.41l-2.27,13.04h27.99l-3.23,18.42h-28l-2.63,14.96h35.41l-3.35,18.66h-57.9l14.72-83.74Z"/>
    <path class="cls-1" d="M1733.11,405.26h48.33c10.77,0,15.08,5.26,13.04,16.27l-4.43,25.24c-1.92,11-8.02,16.27-18.78,16.27h-25.84l-4.55,25.96h-22.49l14.72-83.74ZM1765.89,444.63c1.55,0,2.15-.48,2.51-2.15l2.87-16.63c.36-1.68-.12-2.15-1.68-2.15h-17.23l-3.71,20.94h17.23Z"/>
    <path class="cls-1" d="M1869.01,421.54l-3.83,21.77c-1.56,9.21-6.1,14.36-13.76,15.79l9.09,29.91h-21.77l-9.09-27.99h-9.45l-4.91,27.99h-22.49l14.72-83.74h48.45c10.77,0,15.08,5.26,13.04,16.27ZM1840.65,443.31c1.56,0,2.15-.48,2.51-2.15l2.63-15.55c.36-1.68,0-2.15-1.56-2.15h-17.35l-3.59,19.86h17.35Z"/>
    <path class="cls-1" d="M1871.63,472.74l8.97-51.2c2.04-11.01,8.02-16.27,18.78-16.27h33.14c10.77,0,15.07,5.26,13.04,16.27l-8.97,51.2c-1.92,11-8.02,16.27-18.78,16.27h-33.14c-10.77,0-14.95-5.26-13.04-16.27ZM1912.55,470.35c1.55,0,2.03-.48,2.39-2.15l7.42-42.11c.24-1.67-.12-2.15-1.67-2.15h-15.91c-1.56,0-2.15.48-2.39,2.15l-7.42,42.11c-.36,1.68.12,2.15,1.68,2.15h15.91Z"/>
  </g>
  <g>
    <path class="cls-1" d="M755.09,456.18v-103.3c0-22.2,11.1-32.82,33.31-32.82h64.44c22.2,0,32.34,10.62,32.34,32.82v50.76l-45.37-23.93v-17.66c0-3.38-.96-4.34-4.34-4.34h-30.65c-3.38,0-4.35.96-4.35,4.34v84.96c0,3.38.97,4.34,4.35,4.34h30.65c3.38,0,4.34-.96,4.34-4.34v-20.05l45.37,23.93v5.3c0,22.2-10.62,32.83-32.83,32.83h-64.44c-22.2,0-32.82-10.62-32.82-32.83Z"/>
    <path class="cls-1" d="M905.94,456.18v-103.3c0-22.2,11.1-32.82,33.31-32.82h64.44c22.21,0,32.34,10.62,32.34,32.82v50.76l-45.37-23.93v-17.66c0-3.38-.96-4.34-4.34-4.34h-30.65c-3.38,0-4.34.96-4.34,4.34v84.96c0,3.38.96,4.34,4.34,4.34h30.65c3.38,0,4.34-.96,4.34-4.34v-20.05l45.37,23.93v5.3c0,22.2-10.62,32.83-32.82,32.83h-64.44c-22.21,0-32.83-10.62-32.83-32.83Z"/>
    <path class="cls-1" d="M1058.24,456.18v-136.12l45.37,23.93v101.58c0,2.9,1.45,4.35,4.34,4.35h31.38c2.89,0,4.34-1.45,4.34-4.35v-125.5l45.37,23.93v112.2c0,21.24-11.58,32.83-32.83,32.83h-65.16c-21.24,0-32.82-11.58-32.82-32.83Z"/>
    <polygon class="cls-1" points="694.02 320.06 634.17 320.06 583.24 489.01 629.58 489.01 638.51 454.25 647.68 418.05 663.37 356.99 679.06 418.05 688.23 454.25 697.16 489.01 745.43 489.01 694.02 320.06"/>
  </g>
</svg>